<mxfile host="app.diagrams.net" modified="2023-08-29T10:01:25.667Z" agent="Mozilla/5.0 (X11; Linux x86_64; rv:109.0) Gecko/20100101 Firefox/116.0" etag="ULOwJ0WCnMCmR4PmQdjF" version="21.6.9" type="device">
  <diagram id="C5RBs43oDa-KdzZeNtuy" name="Page-1">
    <mxGraphModel dx="985" dy="521" grid="1" gridSize="10" guides="1" tooltips="1" connect="1" arrows="1" fold="1" page="1" pageScale="1" pageWidth="827" pageHeight="1169" math="0" shadow="0">
      <root>
        <mxCell id="WIyWlLk6GJQsqaUBKTNV-0" />
        <mxCell id="WIyWlLk6GJQsqaUBKTNV-1" parent="WIyWlLk6GJQsqaUBKTNV-0" />
        <mxCell id="rKTd77SAYt78CUuwyyt--32" value="" style="group" vertex="1" connectable="0" parent="WIyWlLk6GJQsqaUBKTNV-1">
          <mxGeometry x="340" y="500" width="200" height="210" as="geometry" />
        </mxCell>
        <mxCell id="rKTd77SAYt78CUuwyyt--25" value="Finalisierung" style="text;html=1;align=center;verticalAlign=middle;resizable=0;points=[];autosize=1;strokeColor=none;fillColor=none;container=0;" vertex="1" parent="rKTd77SAYt78CUuwyyt--32">
          <mxGeometry width="100" height="30" as="geometry" />
        </mxCell>
        <mxCell id="rKTd77SAYt78CUuwyyt--26" value="" style="rounded=0;whiteSpace=wrap;html=1;fillColor=none;container=0;" vertex="1" parent="rKTd77SAYt78CUuwyyt--32">
          <mxGeometry y="30" width="200" height="180" as="geometry" />
        </mxCell>
        <mxCell id="rKTd77SAYt78CUuwyyt--27" value="&lt;div&gt;Fertigstellung&lt;/div&gt;&lt;div&gt;(Feinschliff)&lt;/div&gt;" style="rounded=0;whiteSpace=wrap;html=1;container=0;" vertex="1" parent="rKTd77SAYt78CUuwyyt--32">
          <mxGeometry x="25" y="50" width="150" height="60" as="geometry" />
        </mxCell>
        <mxCell id="rKTd77SAYt78CUuwyyt--28" value="Abschlussbericht" style="rounded=0;whiteSpace=wrap;html=1;container=0;" vertex="1" parent="rKTd77SAYt78CUuwyyt--32">
          <mxGeometry x="25" y="130" width="150" height="60" as="geometry" />
        </mxCell>
        <mxCell id="rKTd77SAYt78CUuwyyt--29" style="edgeStyle=orthogonalEdgeStyle;rounded=0;orthogonalLoop=1;jettySize=auto;html=1;entryX=0.5;entryY=0;entryDx=0;entryDy=0;endArrow=block;endFill=1;" edge="1" parent="rKTd77SAYt78CUuwyyt--32" source="rKTd77SAYt78CUuwyyt--27" target="rKTd77SAYt78CUuwyyt--28">
          <mxGeometry relative="1" as="geometry" />
        </mxCell>
        <mxCell id="rKTd77SAYt78CUuwyyt--33" value="" style="group" vertex="1" connectable="0" parent="WIyWlLk6GJQsqaUBKTNV-1">
          <mxGeometry x="280" y="120" width="320" height="110" as="geometry" />
        </mxCell>
        <mxCell id="rKTd77SAYt78CUuwyyt--4" value="" style="rounded=0;whiteSpace=wrap;html=1;fillColor=none;container=0;" vertex="1" parent="rKTd77SAYt78CUuwyyt--33">
          <mxGeometry y="30" width="320" height="80" as="geometry" />
        </mxCell>
        <mxCell id="rKTd77SAYt78CUuwyyt--0" value="&lt;font face=&quot;Courier New&quot;&gt;Pflichtenheft&lt;/font&gt;" style="rounded=0;whiteSpace=wrap;html=1;container=0;" vertex="1" parent="rKTd77SAYt78CUuwyyt--33">
          <mxGeometry x="180" y="50" width="120" height="40" as="geometry" />
        </mxCell>
        <mxCell id="rKTd77SAYt78CUuwyyt--8" style="edgeStyle=orthogonalEdgeStyle;rounded=0;orthogonalLoop=1;jettySize=auto;html=1;entryX=0;entryY=0.25;entryDx=0;entryDy=0;exitX=1;exitY=0.25;exitDx=0;exitDy=0;startArrow=none;startFill=0;endArrow=block;endFill=1;" edge="1" parent="rKTd77SAYt78CUuwyyt--33" source="rKTd77SAYt78CUuwyyt--1" target="rKTd77SAYt78CUuwyyt--0">
          <mxGeometry relative="1" as="geometry" />
        </mxCell>
        <mxCell id="rKTd77SAYt78CUuwyyt--1" value="Projekt-Analyse" style="rounded=0;whiteSpace=wrap;html=1;container=0;" vertex="1" parent="rKTd77SAYt78CUuwyyt--33">
          <mxGeometry x="20" y="50" width="120" height="40" as="geometry" />
        </mxCell>
        <mxCell id="rKTd77SAYt78CUuwyyt--9" style="edgeStyle=orthogonalEdgeStyle;rounded=0;orthogonalLoop=1;jettySize=auto;html=1;exitX=0;exitY=0.75;exitDx=0;exitDy=0;entryX=1;entryY=0.75;entryDx=0;entryDy=0;startArrow=none;startFill=0;endArrow=block;endFill=1;" edge="1" parent="rKTd77SAYt78CUuwyyt--33" source="rKTd77SAYt78CUuwyyt--0" target="rKTd77SAYt78CUuwyyt--1">
          <mxGeometry relative="1" as="geometry" />
        </mxCell>
        <mxCell id="rKTd77SAYt78CUuwyyt--5" value="Konzeptionierung" style="text;html=1;align=center;verticalAlign=middle;resizable=0;points=[];autosize=1;strokeColor=none;fillColor=none;container=0;" vertex="1" parent="rKTd77SAYt78CUuwyyt--33">
          <mxGeometry width="130" height="30" as="geometry" />
        </mxCell>
        <mxCell id="rKTd77SAYt78CUuwyyt--34" style="edgeStyle=orthogonalEdgeStyle;rounded=0;orthogonalLoop=1;jettySize=auto;html=1;entryX=0.5;entryY=0;entryDx=0;entryDy=0;endArrow=block;endFill=1;" edge="1" parent="WIyWlLk6GJQsqaUBKTNV-1" source="rKTd77SAYt78CUuwyyt--4" target="rKTd77SAYt78CUuwyyt--13">
          <mxGeometry relative="1" as="geometry" />
        </mxCell>
        <mxCell id="rKTd77SAYt78CUuwyyt--35" style="edgeStyle=orthogonalEdgeStyle;rounded=0;orthogonalLoop=1;jettySize=auto;html=1;entryX=0.5;entryY=0;entryDx=0;entryDy=0;endArrow=block;endFill=1;" edge="1" parent="WIyWlLk6GJQsqaUBKTNV-1" source="rKTd77SAYt78CUuwyyt--13" target="rKTd77SAYt78CUuwyyt--26">
          <mxGeometry relative="1" as="geometry" />
        </mxCell>
        <mxCell id="rKTd77SAYt78CUuwyyt--37" value="" style="group" vertex="1" connectable="0" parent="WIyWlLk6GJQsqaUBKTNV-1">
          <mxGeometry x="240" y="250" width="400" height="230" as="geometry" />
        </mxCell>
        <mxCell id="rKTd77SAYt78CUuwyyt--13" value="&amp;nbsp;" style="rounded=0;whiteSpace=wrap;html=1;fillColor=none;container=0;" vertex="1" parent="rKTd77SAYt78CUuwyyt--37">
          <mxGeometry y="30" width="400" height="200" as="geometry" />
        </mxCell>
        <mxCell id="rKTd77SAYt78CUuwyyt--12" value="Implementierung" style="text;html=1;align=center;verticalAlign=middle;resizable=0;points=[];autosize=1;strokeColor=none;fillColor=none;container=0;" vertex="1" parent="rKTd77SAYt78CUuwyyt--37">
          <mxGeometry width="120" height="30" as="geometry" />
        </mxCell>
        <mxCell id="rKTd77SAYt78CUuwyyt--14" value="Entwicklung" style="rounded=0;whiteSpace=wrap;html=1;container=0;" vertex="1" parent="rKTd77SAYt78CUuwyyt--37">
          <mxGeometry x="40" y="50" width="120" height="40" as="geometry" />
        </mxCell>
        <mxCell id="rKTd77SAYt78CUuwyyt--15" value="Testing" style="rounded=0;whiteSpace=wrap;html=1;container=0;" vertex="1" parent="rKTd77SAYt78CUuwyyt--37">
          <mxGeometry x="240" y="50" width="120" height="40" as="geometry" />
        </mxCell>
        <mxCell id="rKTd77SAYt78CUuwyyt--18" style="edgeStyle=orthogonalEdgeStyle;rounded=0;orthogonalLoop=1;jettySize=auto;html=1;entryX=0;entryY=0.5;entryDx=0;entryDy=0;endArrow=block;endFill=1;" edge="1" parent="rKTd77SAYt78CUuwyyt--37" source="rKTd77SAYt78CUuwyyt--14" target="rKTd77SAYt78CUuwyyt--15">
          <mxGeometry relative="1" as="geometry" />
        </mxCell>
        <mxCell id="rKTd77SAYt78CUuwyyt--19" style="rounded=0;orthogonalLoop=1;jettySize=auto;html=1;entryX=0.5;entryY=1;entryDx=0;entryDy=0;exitX=0.25;exitY=0;exitDx=0;exitDy=0;endArrow=block;endFill=1;" edge="1" parent="rKTd77SAYt78CUuwyyt--37" source="rKTd77SAYt78CUuwyyt--16" target="rKTd77SAYt78CUuwyyt--14">
          <mxGeometry relative="1" as="geometry" />
        </mxCell>
        <mxCell id="rKTd77SAYt78CUuwyyt--16" value="Reflexion" style="rounded=0;whiteSpace=wrap;html=1;container=0;" vertex="1" parent="rKTd77SAYt78CUuwyyt--37">
          <mxGeometry x="140" y="170" width="120" height="40" as="geometry" />
        </mxCell>
        <mxCell id="rKTd77SAYt78CUuwyyt--17" style="rounded=0;orthogonalLoop=1;jettySize=auto;html=1;entryX=0.75;entryY=0;entryDx=0;entryDy=0;exitX=0.5;exitY=1;exitDx=0;exitDy=0;endArrow=block;endFill=1;" edge="1" parent="rKTd77SAYt78CUuwyyt--37" source="rKTd77SAYt78CUuwyyt--15" target="rKTd77SAYt78CUuwyyt--16">
          <mxGeometry relative="1" as="geometry" />
        </mxCell>
      </root>
    </mxGraphModel>
  </diagram>
</mxfile>
